<?xml version="1.0" encoding="UTF-8"?>
<svg width="175px" height="127px" viewBox="0 0 175 127" version="1.1" xmlns="http://www.w3.org/2000/svg" xmlns:xlink="http://www.w3.org/1999/xlink">
    <!-- Generator: Sketch 53.2 (72643) - https://sketchapp.com -->
    <title>Logo</title>
    <desc>Created with Sketch.</desc>
    <g id="Page-1" stroke="none" stroke-width="1" fill="none" fill-rule="evenodd">
        <g id="Launch" transform="translate(-100.000000, -270.000000)">
            <g id="Logo" transform="translate(100.000000, 270.000000)">
                <path d="M6.51184147,25.618934 C6.51184147,27.8700585 5.16882147,29.0154108 3.31283213,29.0154108 C1.45783213,29.0154108 0.114812133,27.8700585 0.114812133,25.618934 L0.114812133,3.82013343 C0.114812133,1.56950375 1.45783213,0.424151424 3.31283213,0.424151424 C5.16882147,0.424151424 6.51184147,1.56950375 6.51184147,3.82013343 L6.51184147,11.4027121 L18.4352868,11.4027121 L18.4352868,3.82013343 C18.4352868,1.56950375 19.7778121,0.424151424 21.6338015,0.424151424 C23.4888015,0.424151424 24.8318215,1.56950375 24.8318215,3.82013343 L24.8318215,25.618934 C24.8318215,27.8700585 23.4888015,29.0154108 21.6338015,29.0154108 C19.7778121,29.0154108 18.4352868,27.8700585 18.4352868,25.618934 L18.4352868,17.3258906 L6.51184147,17.3258906 L6.51184147,25.618934 Z" id="Fill-2" fill="#B4E2D9"></path>
                <path d="M31.8625188,3.85971364 C31.8625188,1.80649025 33.4014268,0.661137931 35.0605388,0.661137931 L44.8524655,0.661137931 C46.8657588,0.661137931 48.0504855,1.84557571 48.0504855,3.62272714 C48.0504855,5.47854423 46.8657588,6.58481109 44.8524655,6.58481109 L38.2585588,6.58481109 L38.2585588,11.6787841 L44.2999228,11.6787841 C46.3132161,11.6787841 47.4974481,12.8241364 47.4974481,14.6408681 C47.4974481,16.4571049 46.3132161,17.6024573 44.2999228,17.6024573 L38.2585588,17.6024573 L38.2585588,22.8547511 L45.0889161,22.8547511 C47.1027041,22.8547511 48.2869361,23.9605232 48.2869361,25.8163403 C48.2869361,27.5934918 47.1027041,28.7784243 45.0889161,28.7784243 L35.0605388,28.7784243 C33.4014268,28.7784243 31.8625188,27.633072 31.8625188,25.5793538 L31.8625188,3.85971364 Z" id="Fill-4" fill="#B4E2D9"></path>
                <path d="M54.0935313,3.82033133 C54.0935313,1.5692069 55.435562,0.423854573 57.2915513,0.423854573 C59.1475407,0.423854573 60.4895713,1.5692069 60.4895713,3.82033133 L60.4895713,22.854949 L67.359502,22.854949 C69.37329,22.854949 70.557522,23.9607211 70.557522,25.8165382 C70.557522,27.5936897 69.37329,28.7781274 67.359502,28.7781274 L57.2915513,28.7781274 C55.6324393,28.7781274 54.0935313,27.6327751 54.0935313,25.5795517 L54.0935313,3.82033133 Z" id="Fill-6" fill="#B4E2D9"></path>
                <path d="M81.9697293,14.0482534 L85.4042,14.0482534 C88.128824,14.0482534 89.629148,12.1924363 89.629148,10.2178786 C89.629148,7.69018741 87.9319467,6.34792354 85.4042,6.34792354 L81.9697293,6.34792354 L81.9697293,14.0482534 Z M75.5736893,3.85981259 C75.5736893,1.80609445 77.113092,0.660742129 78.7717093,0.660742129 L86.6285,0.660742129 C91.564284,0.660742129 96.2631227,3.85981259 96.2631227,10.2178786 C96.2631227,15.7071589 92.9063147,19.73494 86.8263667,19.73494 L81.9697293,19.73494 L81.9697293,25.619033 C81.9697293,27.8701574 80.6276987,29.015015 78.7717093,29.015015 C76.91572,29.015015 75.5736893,27.8701574 75.5736893,25.619033 L75.5736893,3.85981259 Z" id="Fill-8" fill="#B4E2D9"></path>
                <path d="M103.845225,21.3934498 C105.424696,21.3934498 107.478057,23.0127751 110.755224,23.0127751 C113.242902,23.0127751 114.15111,21.7491769 114.15111,20.3668381 C114.15111,18.2344543 111.703005,17.8000615 108.070173,16.6151289 C104.753433,15.548937 101.318962,14.127018 101.318962,9.03304498 C101.318962,2.91196552 106.096453,0.029041979 111.426486,0.029041979 C116.559642,0.029041979 119.401997,1.8061934 119.401997,4.25472414 C119.401997,5.99229535 118.257338,7.25589355 116.559642,7.25589355 C114.506776,7.25589355 113.835018,6.18970165 111.110889,6.18970165 C109.37362,6.18970165 108.188893,7.09806747 108.188893,8.47991154 C108.188893,10.0992369 109.768858,10.2966432 114.190684,11.7576477 C117.664728,12.903 121.021536,14.6801514 121.021536,20.0116057 C121.021536,26.4879175 116.24355,29.4104213 110.281828,29.4104213 C106.530276,29.4104213 100.845566,27.948922 100.845566,24.7899265 C100.845566,23.0523553 101.911078,21.3934498 103.845225,21.3934498" id="Fill-10" fill="#FFFFFF"></path>
                <path d="M148.856033,12.1132264 C151.067688,12.1132264 152.25192,13.3768246 152.25192,16.0227616 C152.25192,23.5652654 147.277552,29.4102729 139.459345,29.4102729 C130.6152,29.4102729 125.639348,22.7756402 125.639348,14.7195832 C125.639348,6.18955322 131.523408,0.0293883058 139.459345,0.0293883058 C144.749805,0.0293883058 150.356357,2.24043778 150.356357,6.18955322 C150.356357,7.76929835 149.251272,8.87507046 147.474429,8.87507046 C145.145044,8.87507046 144.039959,5.95256672 139.735864,5.95256672 C135.273971,5.95256672 132.509773,9.82301649 132.509773,14.7195832 C132.509773,19.0635112 134.642281,23.4865997 139.616649,23.4865997 C142.972963,23.4865997 145.302348,21.3146357 145.61844,18.0368996 L141.947024,18.0368996 C139.932741,18.0368996 138.748015,16.851967 138.748015,15.0748156 C138.748015,13.2189985 139.932741,12.1132264 141.947024,12.1132264 L148.856033,12.1132264 Z" id="Fill-12" fill="#FFFFFF"></path>
                <path d="M158.808281,3.85971364 C158.808281,1.80649025 160.348179,0.661137931 162.006301,0.661137931 L171.798228,0.661137931 C173.812511,0.661137931 174.997237,1.84557571 174.997237,3.62272714 C174.997237,5.47854423 173.812511,6.58481109 171.798228,6.58481109 L165.205311,6.58481109 L165.205311,11.6001184 L170.969167,11.6001184 C172.98246,11.6001184 174.167187,12.744976 174.167187,14.5617076 C174.167187,16.3784393 172.98246,17.5232969 170.969167,17.5232969 L165.205311,17.5232969 L165.205311,25.618934 C165.205311,27.8700585 163.862291,29.0154108 162.006301,29.0154108 C160.151301,29.0154108 158.808281,27.8700585 158.808281,25.618934 L158.808281,3.85971364 Z" id="Fill-14" fill="#FFFFFF"></path>
                <path d="M133.514095,108.161433 L87.3913749,91.2878951 L87.3913749,91.554072 L41.5981029,108.306891 C41.5981029,108.306891 24.1368643,115.579754 42.9154003,123.725856 C61.6944309,131.871958 87.7208229,121.543997 87.7208229,121.543997 L87.7208229,121.524702 C90.7778629,122.675001 114.649982,131.191673 132.196798,123.580399 C150.975334,115.434297 133.514095,108.161433 133.514095,108.161433" id="Fill-16" fill="#121212"></path>
                <path d="M89.8143512,99.0645652 C77.4442219,99.1372939 46.4464299,80.222901 46.4464299,80.222901 C46.4464299,80.222901 33.2314099,74.1047901 36.7969672,66.4242504 C39.6160725,60.3516567 48.3978899,64.1864843 48.3978899,64.1864843 C48.3978899,64.1864843 79.2235379,75.9893028 89.7198699,75.8586882 C97.6226645,75.7597376 115.902577,67.3054048 115.902577,67.3054048 C115.902577,67.3054048 115.269403,66.3193628 112.047639,65.8132309 C108.826865,65.3075937 100.703449,68.5086432 96.9835552,69.3047001 C93.8859525,69.9676687 87.3340925,69.7643253 84.3932992,63.7135007 C81.4525059,57.6626762 86.7573112,54.4794378 91.0010565,52.8878186 C95.2452965,51.2957046 107.976533,46.5208471 116.994306,44.3983583 C126.013069,42.2763643 136.622185,43.3371139 141.927485,53.4181934 C147.231795,63.4987781 144.579393,72.5186132 139.805365,75.7018516 C135.030842,78.8855847 104.756253,98.9760045 89.8143512,99.0645652" id="Fill-18" fill="#FFFFFF"></path>
                <path d="M42.7548315,60.5182894 C45.9142675,60.5182894 48.8387368,61.6883793 49.3220261,61.8917226 C50.5799635,62.3706432 79.6307475,73.3858156 89.5443621,73.3858156 L89.6888048,73.3848261 C91.6100901,73.361078 94.3540061,72.7411529 97.3605901,71.8352609 C97.3412981,71.8105232 97.3200275,71.7857856 97.2977675,71.761048 C96.3890648,71.9396537 95.3878595,72.0376147 94.3812128,72.0376147 C88.8572701,72.0381094 84.4062595,69.3981094 82.1688821,64.794931 C81.9799195,64.4060555 81.8231101,64.0216327 81.6826248,63.6386942 L38.8568581,52.1851709 C38.8568581,52.1851709 33.1790741,50.1274948 30.6171955,56.3054708 C28.9887528,60.2328171 33.3962328,63.133057 35.2542008,64.1492789 C36.8485115,61.7982144 39.4603515,60.5182894 42.7548315,60.5182894" id="Fill-20" fill="#FFFFFF"></path>
                <path d="M81.6330592,57.4582444 C81.7493059,57.1663403 81.8888019,56.8813628 82.0396752,56.6013328 C69.4583232,53.3458606 51.4168405,48.5531919 48.4948445,47.9441514 C43.2904565,46.8601484 41.7728192,50.6078996 41.7728192,50.6078996 L81.0775485,60.4168651 C81.0755699,59.3996537 81.2526605,58.4106432 81.6330592,57.4582444" id="Fill-22" fill="#FFFFFF"></path>
                <path d="M87.4873897,51.7364303 C78.4720897,49.3660705 67.8520911,46.4905682 66.1163057,46.128904 C60.9119177,45.0444063 59.3942804,48.2978996 59.3942804,48.2978996 C59.3942804,48.2978996 73.7910591,52.0733568 83.5127431,54.59709 C84.5282937,53.5318876 85.8554844,52.5765202 87.4873897,51.7364303" id="Fill-24" fill="#FFFFFF"></path>
            </g>
        </g>
    </g>
</svg>